<svg width="40" height="40" viewBox="0 0 40 40" fill="none" xmlns="http://www.w3.org/2000/svg">
<path d="M19.9746 5.98047C19.9746 5.98047 32.4777 5.98 35.584 6.82812C36.4322 7.05822 37.2056 7.50649 37.8271 8.12793C38.4487 8.7495 38.8968 9.52369 39.127 10.3721C39.9723 13.4941 39.9998 19.9581 40 19.999C40 19.999 40.0001 26.5199 39.1533 29.627C38.9232 30.4753 38.4751 31.2495 37.8535 31.8711C37.232 32.4925 36.4586 32.9408 35.6104 33.1709C32.5035 34.0184 20 34.0176 20 34.0176C20 34.0176 7.49691 34.018 4.39062 33.1699C3.5423 32.9398 2.76901 32.4916 2.14746 31.8701C1.52596 31.2486 1.07779 30.4752 0.847656 29.627C0.000156283 26.4951 0 19.999 0 19.999C8.23263e-06 19.9581 0.00299591 13.4935 0.822266 10.3965C1.0524 9.54823 1.50058 8.77481 2.12207 8.15332C2.7436 7.53187 3.51696 7.0836 4.36523 6.85352C7.46248 6.00819 19.8944 5.98064 19.9746 5.98047ZM15.9951 26.0068L26.3662 20L15.9941 13.9922L15.9951 26.0068Z" fill="white"/>
</svg>
